<?xml version="1.0" standalone="no"?>
<!DOCTYPE svg PUBLIC "-//W3C//DTD SVG 20010904//EN"
 "http://www.w3.org/TR/2001/REC-SVG-20010904/DTD/svg10.dtd">
<svg version="1.0" xmlns="http://www.w3.org/2000/svg"
 width="718.000000pt" height="718.000000pt" viewBox="0 0 718.000000 718.000000"
 preserveAspectRatio="xMidYMid meet">

<g transform="translate(0.000000,718.000000) scale(0.100000,-0.100000)"
fill="#000000" stroke="none">
<path d="M0 3590 l0 -3590 3590 0 3590 0 0 3590 0 3590 -3590 0 -3590 0 0
-3590z m3249 1564 c26 -21 31 -33 31 -69 0 -36 -5 -48 -31 -69 -52 -44 -128
-25 -148 37 -32 95 72 165 148 101z m-2017 -130 c184 -66 635 -294 1138 -573
l254 -142 35 43 c19 24 67 75 107 114 403 392 1043 452 1509 140 l69 -47 45
16 c98 33 189 10 253 -64 63 -73 73 -166 29 -251 l-21 -41 40 -80 c95 -189
135 -373 127 -589 -6 -146 -23 -242 -63 -354 -14 -39 -28 -78 -30 -86 -3 -11
80 -65 293 -193 628 -375 1068 -673 1123 -762 24 -39 25 -49 4 -69 -35 -35
-138 -7 -404 109 -171 75 -731 356 -1019 512 l-184 99 -77 -77 c-469 -463
-1223 -465 -1699 -6 -314 304 -437 753 -325 1183 13 53 23 98 22 100 -2 1 -83
53 -181 114 l-178 112 -40 -16 c-54 -22 -88 -20 -139 7 -51 27 -90 90 -90 146
0 32 -5 39 -48 65 -86 54 -377 255 -493 341 -199 149 -259 221 -217 263 19 19
82 14 160 -14z m-94 -1174 c64 -60 25 -160 -63 -160 -65 0 -107 52 -91 115 10
40 45 65 91 65 28 0 48 -7 63 -20z m4530 -642 c7 -7 12 -21 12 -33 0 -12 -5
-26 -12 -33 -7 -7 -21 -12 -33 -12 -12 0 -26 5 -33 12 -7 7 -12 21 -12 33 0
12 5 26 12 33 7 7 21 12 33 12 12 0 26 -5 33 -12z m-4188 -362 c15 -19 9 -56
-11 -69 -9 -5 -28 -7 -42 -3 -48 12 -32 86 19 86 12 0 27 -7 34 -14z m2589
-1172 c26 -21 31 -33 31 -69 0 -36 -5 -48 -31 -69 -75 -64 -179 7 -148 101 20
62 96 81 148 37z"/>
<path d="M1190 4956 c0 -15 659 -466 681 -466 5 0 23 10 40 22 22 16 43 22 82
22 104 0 167 -64 167 -169 l0 -61 158 -96 c86 -53 164 -99 172 -103 11 -4 24
12 47 57 18 35 40 75 50 90 9 15 15 30 12 33 -15 14 -991 499 -1125 558 -152
67 -284 120 -284 113z"/>
<path d="M3385 4680 c-235 -51 -435 -164 -595 -337 -38 -42 -70 -80 -70 -83 0
-4 103 -67 230 -140 126 -74 228 -135 226 -137 -1 -1 -109 54 -240 123 -271
144 -236 142 -305 13 l-41 -77 277 -165 278 -165 27 58 c57 118 180 222 302
255 47 13 90 16 164 13 91 -3 106 -7 178 -42 184 -91 285 -265 271 -471 -6
-93 -33 -171 -82 -240 -19 -27 -33 -50 -32 -51 17 -14 513 -287 524 -288 16
-1 113 148 113 174 0 9 -65 55 -150 109 -83 51 -150 95 -150 97 0 3 19 -6 43
-20 23 -13 94 -54 157 -90 l115 -66 18 43 c29 67 57 183 69 294 22 186 -15
394 -104 584 -38 84 -41 87 -65 78 -81 -31 -203 12 -258 90 -28 40 -30 49 -29
124 1 45 4 93 5 105 3 20 -8 31 -76 72 -90 55 -201 102 -314 132 -113 31 -363
35 -486 8z"/>
<path d="M2529 3858 c-28 -115 -37 -325 -19 -437 79 -491 475 -871 973 -932
323 -40 683 86 910 319 l49 49 -214 118 c-117 65 -249 139 -293 165 -44 27
-246 143 -450 260 -304 175 -715 416 -896 528 l-37 22 -23 -92z m941 -563
c168 -96 304 -179 304 -183 -4 -27 -196 -41 -283 -21 -151 34 -288 161 -341
314 -25 74 -26 89 -2 76 9 -5 154 -89 322 -186z"/>
<path d="M4655 2982 c-27 -48 -50 -91 -50 -95 0 -27 1167 -626 1384 -711 42
-16 44 -16 30 0 -30 36 -307 234 -619 443 -285 191 -686 452 -693 451 -1 0
-24 -40 -52 -88z"/>
</g>
</svg>
